HIERARCHY
ROOT Root
{
  OFFSET 0.0 0.0 0.0
  CHANNELS 6 Xposition Yposition Zposition Zrotation Yrotation Xrotation
  JOINT Hips
  {
    OFFSET 0.0 100.0 0.0
    CHANNELS 6 Xposition Yposition Zposition Zrotation Yrotation Xrotation
    JOINT Spine1
    {
      OFFSET 5.003913 -0.037094 -0.013727
      CHANNELS 3 Zrotation Yrotation Xrotation
      JOINT Spine2
      {
        OFFSET 7.125363 -1e-06 0.0
        CHANNELS 3 Zrotation Yrotation Xrotation
        JOINT Chest
        {
          OFFSET 7.594027 1e-06 0.0
          CHANNELS 3 Zrotation Yrotation Xrotation
          JOINT Neck1
          {
            OFFSET 26.313086 -0.460272 -0.181672
            CHANNELS 3 Zrotation Yrotation Xrotation
            JOINT Neck2
            {
              OFFSET 8.045911 0.0 0.0
              CHANNELS 3 Zrotation Yrotation Xrotation
              JOINT Head
              {
                OFFSET 6.432774 0.0 0.0
                CHANNELS 3 Zrotation Yrotation Xrotation
                JOINT HeadEnd
                {
                  OFFSET 16.169773 0.06451 0.00362
                  CHANNELS 3 Zrotation Yrotation Xrotation
                }
                JOINT Jaw
                {
                  OFFSET 0.108741 3.12938 0.002639
                  CHANNELS 3 Zrotation Yrotation Xrotation
                }
                JOINT LeftEye
                {
                  OFFSET 4.45173 8.166359 3.206392
                  CHANNELS 3 Zrotation Yrotation Xrotation
                }
                JOINT RightEye
                {
                  OFFSET 4.436895 8.135758 -3.222429
                  CHANNELS 3 Zrotation Yrotation Xrotation
                }
              }
            }
          }
          JOINT LeftShoulder
          {
            OFFSET 23.218927 5.195579 1.621656
            CHANNELS 3 Zrotation Yrotation Xrotation
            JOINT LeftArm
            {
              OFFSET 15.902118 2e-06 -2e-06
              CHANNELS 3 Zrotation Yrotation Xrotation
              JOINT LeftForeArm
              {
                OFFSET 28.739307 0.0 -1e-06
                CHANNELS 3 Zrotation Yrotation Xrotation
                JOINT LeftHand
                {
                  OFFSET 27.093981 -4e-06 0.0
                  CHANNELS 3 Zrotation Yrotation Xrotation
                  JOINT LeftHandThumb1
                  {
                    OFFSET 2.276781 3.380274 0.83384
                    CHANNELS 3 Zrotation Yrotation Xrotation
                    JOINT LeftHandThumb2
                    {
                      OFFSET 4.705309 -1e-06 -1e-06
                      CHANNELS 3 Zrotation Yrotation Xrotation
                      JOINT LeftHandThumb3
                      {
                        OFFSET 2.798515 0.0 3e-06
                        CHANNELS 3 Zrotation Yrotation Xrotation
                        JOINT LeftHandThumbEnd
                        {
                          OFFSET 3.180793 4e-06 -4e-06
                          CHANNELS 3 Zrotation Yrotation Xrotation
                        }
                      }
                    }
                  }
                  JOINT LeftHandIndex1
                  {
                    OFFSET 3.247786 2.352677 0.137192
                    CHANNELS 3 Zrotation Yrotation Xrotation
                    JOINT LeftHandIndex2
                    {
                      OFFSET 6.367095 1e-06 0.0
                      CHANNELS 3 Zrotation Yrotation Xrotation
                      JOINT LeftHandIndex3
                      {
                        OFFSET 3.662364 0.0 0.0
                        CHANNELS 3 Zrotation Yrotation Xrotation
                        JOINT LeftHandIndex4
                        {
                          OFFSET 2.329242 4e-06 -4e-06
                          CHANNELS 3 Zrotation Yrotation Xrotation
                          JOINT LeftHandIndexEnd
                          {
                            OFFSET 2.767823 1e-06 0.0
                            CHANNELS 3 Zrotation Yrotation Xrotation
                          }
                        }
                      }
                    }
                  }
                  JOINT LeftHandMiddle1
                  {
                    OFFSET 3.163612 0.945023 -0.406112
                    CHANNELS 3 Zrotation Yrotation Xrotation
                    JOINT LeftHandMiddle2
                    {
                      OFFSET 6.276789 3e-06 0.0
                      CHANNELS 3 Zrotation Yrotation Xrotation
                      JOINT LeftHandMiddle3
                      {
                        OFFSET 4.35652 -1e-06 4e-06
                        CHANNELS 3 Zrotation Yrotation Xrotation
                        JOINT LeftHandMiddle4
                        {
                          OFFSET 2.996877 0.0 8e-06
                          CHANNELS 3 Zrotation Yrotation Xrotation
                          JOINT LeftHandMiddleEnd
                          {
                            OFFSET 2.323256 3e-06 -4e-06
                            CHANNELS 3 Zrotation Yrotation Xrotation
                          }
                        }
                      }
                    }
                  }
                  JOINT LeftHandRing1
                  {
                    OFFSET 2.882606 -0.309162 0.107445
                    CHANNELS 3 Zrotation Yrotation Xrotation
                    JOINT LeftHandRing2
                    {
                      OFFSET 6.033198 0.0 4e-06
                      CHANNELS 3 Zrotation Yrotation Xrotation
                      JOINT LeftHandRing3
                      {
                        OFFSET 4.350578 3e-06 0.0
                        CHANNELS 3 Zrotation Yrotation Xrotation
                        JOINT LeftHandRing4
                        {
                          OFFSET 2.651321 2e-06 -7e-06
                          CHANNELS 3 Zrotation Yrotation Xrotation
                          JOINT LeftHandRingEnd
                          {
                            OFFSET 1.937663 1e-06 -4e-06
                            CHANNELS 3 Zrotation Yrotation Xrotation
                          }
                        }
                      }
                    }
                  }
                  JOINT LeftHandPinky1
                  {
                    OFFSET 2.865315 -1.525436 0.575687
                    CHANNELS 3 Zrotation Yrotation Xrotation
                    JOINT LeftHandPinky2
                    {
                      OFFSET 5.54936 1e-06 -8e-06
                      CHANNELS 3 Zrotation Yrotation Xrotation
                      JOINT LeftHandPinky3
                      {
                        OFFSET 3.070974 0.0 -4e-06
                        CHANNELS 3 Zrotation Yrotation Xrotation
                        JOINT LeftHandPinky4
                        {
                          OFFSET 1.549672 1e-06 0.0
                          CHANNELS 3 Zrotation Yrotation Xrotation
                          JOINT LeftHandPinkyEnd
                          {
                            OFFSET 1.952123 0.0 0.0
                            CHANNELS 3 Zrotation Yrotation Xrotation
                          }
                        }
                      }
                    }
                  }
                }
              }
            }
          }
          JOINT RightShoulder
          {
            OFFSET 23.161716 5.296122 -1.380114
            CHANNELS 3 Zrotation Yrotation Xrotation
            JOINT RightArm
            {
              OFFSET -16.027195 -2e-06 1.1e-05
              CHANNELS 3 Zrotation Yrotation Xrotation
              JOINT RightForeArm
              {
                OFFSET -28.736639 4e-06 2e-06
                CHANNELS 3 Zrotation Yrotation Xrotation
                JOINT RightHand
                {
                  OFFSET -27.133619 6e-06 0.0
                  CHANNELS 3 Zrotation Yrotation Xrotation
                  JOINT RightHandThumb1
                  {
                    OFFSET -2.274328 -3.351035 -0.83067
                    CHANNELS 3 Zrotation Yrotation Xrotation
                    JOINT RightHandThumb2
                    {
                      OFFSET -4.703594 -3e-06 2e-06
                      CHANNELS 3 Zrotation Yrotation Xrotation
                      JOINT RightHandThumb3
                      {
                        OFFSET -2.794935 -4e-06 -3e-06
                        CHANNELS 3 Zrotation Yrotation Xrotation
                        JOINT RightHandThumbEnd
                        {
                          OFFSET -3.183852 4e-06 1e-06
                          CHANNELS 3 Zrotation Yrotation Xrotation
                        }
                      }
                    }
                  }
                  JOINT RightHandIndex1
                  {
                    OFFSET -3.253496 -2.33755 -0.127667
                    CHANNELS 3 Zrotation Yrotation Xrotation
                    JOINT RightHandIndex2
                    {
                      OFFSET -6.344434 0.0 0.0
                      CHANNELS 3 Zrotation Yrotation Xrotation
                      JOINT RightHandIndex3
                      {
                        OFFSET -3.654871 0.0 -8e-06
                        CHANNELS 3 Zrotation Yrotation Xrotation
                        JOINT RightHandIndex4
                        {
                          OFFSET -2.327586 -1e-06 0.0
                          CHANNELS 3 Zrotation Yrotation Xrotation
                          JOINT RightHandIndexEnd
                          {
                            OFFSET -2.770001 3e-06 8e-06
                            CHANNELS 3 Zrotation Yrotation Xrotation
                          }
                        }
                      }
                    }
                  }
                  JOINT RightHandMiddle1
                  {
                    OFFSET -3.168223 -0.944764 0.411762
                    CHANNELS 3 Zrotation Yrotation Xrotation
                    JOINT RightHandMiddle2
                    {
                      OFFSET -6.266691 -1e-06 -4e-06
                      CHANNELS 3 Zrotation Yrotation Xrotation
                      JOINT RightHandMiddle3
                      {
                        OFFSET -4.348901 0.0 0.0
                        CHANNELS 3 Zrotation Yrotation Xrotation
                        JOINT RightHandMiddle4
                        {
                          OFFSET -3.00024 2e-06 -4e-06
                          CHANNELS 3 Zrotation Yrotation Xrotation
                          JOINT RightHandMiddleEnd
                          {
                            OFFSET -2.321477 -4e-06 -4e-06
                            CHANNELS 3 Zrotation Yrotation Xrotation
                          }
                        }
                      }
                    }
                  }
                  JOINT RightHandRing1
                  {
                    OFFSET -2.885654 0.293261 -0.119232
                    CHANNELS 3 Zrotation Yrotation Xrotation
                    JOINT RightHandRing2
                    {
                      OFFSET -6.032835 -1e-06 -4e-06
                      CHANNELS 3 Zrotation Yrotation Xrotation
                      JOINT RightHandRing3
                      {
                        OFFSET -4.33881 0.0 -4e-06
                        CHANNELS 3 Zrotation Yrotation Xrotation
                        JOINT RightHandRing4
                        {
                          OFFSET -2.654903 -4e-06 -4e-06
                          CHANNELS 3 Zrotation Yrotation Xrotation
                          JOINT RightHandRingEnd
                          {
                            OFFSET -1.935122 0.0 4e-06
                            CHANNELS 3 Zrotation Yrotation Xrotation
                          }
                        }
                      }
                    }
                  }
                  JOINT RightHandPinky1
                  {
                    OFFSET -2.866241 1.503904 -0.60527
                    CHANNELS 3 Zrotation Yrotation Xrotation
                    JOINT RightHandPinky2
                    {
                      OFFSET -5.553177 -2e-06 0.0
                      CHANNELS 3 Zrotation Yrotation Xrotation
                      JOINT RightHandPinky3
                      {
                        OFFSET -3.062664 -1e-06 -4e-06
                        CHANNELS 3 Zrotation Yrotation Xrotation
                        JOINT RightHandPinky4
                        {
                          OFFSET -1.546529 2e-06 4e-06
                          CHANNELS 3 Zrotation Yrotation Xrotation
                          JOINT RightHandPinkyEnd
                          {
                            OFFSET -1.952341 0.0 -4e-06
                            CHANNELS 3 Zrotation Yrotation Xrotation
                          }
                        }
                      }
                    }
                  }
                }
              }
            }
          }
        }
      }
    }
    JOINT LeftLeg
    {
      OFFSET -8.443107 2.567604 10.043214
      CHANNELS 3 Zrotation Yrotation Xrotation
      JOINT LeftShin
      {
        OFFSET 43.229198 1e-06 -1e-06
        CHANNELS 3 Zrotation Yrotation Xrotation
        JOINT LeftFoot
        {
          OFFSET 42.298611 1e-06 1e-06
          CHANNELS 3 Zrotation Yrotation Xrotation
          JOINT LeftToeBase
          {
            OFFSET 14.165858 1e-06 0.0
            CHANNELS 3 Zrotation Yrotation Xrotation
            JOINT LeftToeEnd
            {
              OFFSET 6.7141 -0.234461 0.0
              CHANNELS 3 Zrotation Yrotation Xrotation
            }
          }
        }
      }
    }
    JOINT RightLeg
    {
      OFFSET -8.303923 2.592729 -10.047278
      CHANNELS 3 Zrotation Yrotation Xrotation
      JOINT RightShin
      {
        OFFSET -43.369682 0.0 1e-06
        CHANNELS 3 Zrotation Yrotation Xrotation
        JOINT RightFoot
        {
          OFFSET -42.260784 4e-06 2e-06
          CHANNELS 3 Zrotation Yrotation Xrotation
          JOINT RightToeBase
          {
            OFFSET -14.222245 -2e-06 -1e-06
            CHANNELS 3 Zrotation Yrotation Xrotation
            JOINT RightToeEnd
            {
              OFFSET -6.660062 0.232574 -2e-06
              CHANNELS 3 Zrotation Yrotation Xrotation
            }
          }
        }
      }
    }
  }
}
MOTION
Frames: 4
Frame Time: 0.03333333333333333
0.0 0.0 0.0 0.0 -0.0 0.0 3.645819 99.894875 4.511817 89.81115 3.536826 90.233124 -2.556792 0.956589 -0.304762 -12.128279 -0.488249 -0.50748 21.179867 -0.131442 -2.850727 22.746563 -0.529682 2.53795 -2.543347 -0.626757 -1.614296 -33.724232 -0.41711 -2.781264 6e-06 0.0 -0.0 -0.002264 0.024737 0.038118 0.088298 0.024035 0.04507 0.070745 0.023503 0.035014 -112.940125 -73.374474 134.385376 55.141769 -54.729084 -2.987213 20.066401 -0.069466 0.040092 -0.924969 -0.451377 11.103477 17.636631 -26.322741 52.411209 -19.466663 -14.395597 29.410395 1e-06 -8.774822 -2e-06 16.111589 -18.033627 6.171131 -0.609776 -1.795655 -3.889325 -4.807091 -11.046814 -2.937849 2e-06 -20.976021 -4e-06 -5.019974 -25.033562 -4.031882 7e-06 0.0 1e-06 -10.634537 -5.686972 -3.565584 10.573275 -17.922955 -3.113905 2e-06 -13.821213 0.0 -0.501782 -31.181507 -4.027015 -11.505689 -60.007015 7.289099 -13.982718 -7.150201 -2.875043 13.772733 -8.401495 -3.218241 0.34773 -34.211563 0.771657 -0.963032 -17.733374 2.621021 -0.0 -1e-06 0.0 -17.346424 -20.095224 -4.20178 21.757561 -1.638374 3.86643 -0.0 -6.338825 1e-06 -1.697592 -22.591751 -6.194008 -1e-06 -3e-06 0.0 54.954227 -74.157013 146.70253 47.873394 -59.722656 -14.022449 22.698624 -0.049903 0.203615 -0.645063 7.405319 4.790607 22.182116 -20.375898 49.933327 -16.701815 -16.743526 28.47653 -3e-06 -12.690601 -1e-06 16.077745 -17.760723 2.729665 -0.10592 -1.513856 -4.275882 -5.039042 -5.612872 -2.953556 3e-06 -11.020524 -2e-06 -6.1113 -15.895334 -3.840472 0.0 -1e-06 1e-06 -10.283371 -5.680288 -4.341837 11.028294 -11.302406 -2.372634 -1.384272 -14.238581 -6.320122 -0.625439 -26.924194 -3.827603 -4.01907 -49.731651 -3.84881 -13.708527 -7.363476 -3.720938 18.141151 -14.052739 -3.242676 3e-06 -18.78727 -1e-06 -0.429711 -8.456045 2.555502 -1e-06 0.0 2e-06 -15.923538 -20.094486 -5.473586 30.419214 -7.190825 1.735927 2e-06 -8.162927 0.0 -1.861903 -22.861469 -6.167944 -0.0 -5e-06 -1e-06 -176.175629 -5.659637 0.725189 8.882268 -0.047015 0.033935 -78.587349 0.970993 -6.339897 -9.949459 1.619772 2.023344 -0.999999 0.0 0.0 3.323841 -3.652667 -1.941563 10.621861 0.004508 0.099722 -79.229576 -3.73633 -8.234625 -9.727646 0.824511 1.597156 -1.000001 -0.0 0.0 
0.0 0.0 0.0 0.0 -0.0 0.0 3.634197 99.916283 4.554992 89.775116 3.54337 90.221169 -2.557348 0.944883 -0.342659 -12.11179 -0.462312 -0.453007 21.15275 -0.114137 -2.888817 22.72966 -0.550595 2.531185 -2.532318 -0.600047 -1.588683 -33.620052 -0.459101 -2.735665 6e-06 0.0 -0.0 -0.009042 0.025149 0.064172 0.08316 0.026649 0.071613 0.065293 0.021733 0.060093 -112.778442 -73.405746 134.255737 55.328819 -54.800743 -3.217313 19.976068 -0.085943 0.016001 -0.875123 -0.479016 11.264734 17.636625 -26.322729 52.41119 -19.466661 -14.395596 29.410393 -0.0 -8.774821 -2e-06 16.121935 -18.008314 6.150006 -0.609776 -1.795653 -3.889328 -4.807088 -11.046809 -2.937849 4e-06 -20.976015 -3e-06 -5.01997 -25.033556 -4.031878 7e-06 0.0 1e-06 -10.634532 -5.686971 -3.565589 10.573272 -17.922947 -3.113902 4e-06 -13.821205 -2e-06 -0.501779 -31.181501 -4.027013 -11.455119 -60.008942 7.336284 -13.982712 -7.150198 -2.875043 13.772727 -8.40149 -3.218244 0.347734 -34.211544 0.771654 -0.963029 -17.733368 2.62102 0.0 -2e-06 -1e-06 -17.346413 -20.095215 -4.201785 21.757555 -1.638375 3.866424 1e-06 -6.338822 1e-06 -1.69759 -22.591745 -6.194003 0.0 -3e-06 -0.0 55.027397 -74.129402 146.647354 47.817013 -59.824001 -14.248167 22.660175 -0.067236 0.19731 -0.516818 7.399912 4.72369 22.182108 -20.375895 49.933319 -16.701813 -16.743528 28.47653 -4e-06 -12.690598 -0.0 16.098745 -17.739822 2.713896 -0.105919 -1.513856 -4.27588 -5.03904 -5.612871 -2.953557 5e-06 -11.020523 -2e-06 -6.111297 -15.895332 -3.84047 0.0 -0.0 -1e-06 -10.283367 -5.680287 -4.341838 11.028294 -11.302403 -2.372633 -1.384269 -14.238579 -6.32012 -0.625436 -26.924189 -3.827603 -4.024901 -49.829227 -3.813852 -13.708522 -7.363474 -3.72094 18.141148 -14.052736 -3.242674 4e-06 -18.787268 0.0 -0.429711 -8.456045 2.555504 -1e-06 4e-06 -0.0 -15.923532 -20.094479 -5.473586 30.419205 -7.190824 1.735925 1e-06 -8.162924 -0.0 -1.861902 -22.861464 -6.16794 -0.0 -6e-06 -2e-06 -175.959854 -5.713212 0.760249 8.50264 -0.033989 0.08139 -78.439133 0.90849 -6.429266 -10.039822 1.632631 2.023796 -0.999999 -0.0 0.0 3.616251 -3.5983 -1.92917 10.069444 0.004394 0.110955 -78.993446 -3.819288 -8.215483 -9.826571 0.810366 1.595054 -1.000001 -0.0 -0.0 
0.0 0.0 0.0 0.0 -0.0 0.0 3.640144 99.918121 4.595988 89.745613 3.536267 90.171921 -2.553623 0.938417 -0.372624 -12.118387 -0.447891 -0.434789 21.190628 -0.097625 -2.878364 22.679708 -0.600117 2.530457 -2.561049 -0.565979 -1.576289 -33.499104 -0.499704 -2.700543 6e-06 0.0 -0.0 -0.014278 0.026219 0.072471 0.069689 0.026849 0.083065 0.053786 0.023533 0.064735 -112.679794 -73.44062 134.174988 55.424919 -54.87043 -3.300857 19.998638 -0.091943 -0.002057 -0.859396 -0.535812 11.284109 17.636631 -26.322729 52.411179 -19.466656 -14.395596 29.410381 1e-06 -8.774821 -3e-06 16.140968 -18.024527 6.14351 -0.609776 -1.795653 -3.889327 -4.807091 -11.046811 -2.937848 -1e-06 -20.976015 -1e-06 -5.019973 -25.033558 -4.031883 5e-06 1e-06 1e-06 -10.634535 -5.686974 -3.565589 10.57327 -17.922949 -3.113901 1e-06 -13.821209 1e-06 -0.501781 -31.181505 -4.027017 -11.481044 -59.994034 7.352852 -13.982715 -7.150201 -2.875038 13.772727 -8.401489 -3.218243 0.347728 -34.211555 0.771653 -0.963029 -17.73337 2.621016 -1e-06 -2e-06 0.0 -17.346422 -20.095221 -4.201777 21.757557 -1.638371 3.866431 0.0 -6.338823 1e-06 -1.697592 -22.591747 -6.194008 -1e-06 -4e-06 -0.0 54.960312 -74.107346 146.721298 47.711494 -59.873322 -14.376217 22.660372 -0.082884 0.181026 -0.411211 7.421095 4.735351 22.182114 -20.375885 49.9333 -16.701809 -16.74353 28.476522 -2e-06 -12.690602 -0.0 16.114162 -17.709251 2.721684 -0.10592 -1.513856 -4.275881 -5.03904 -5.612871 -2.953554 4e-06 -11.020521 -1e-06 -6.111299 -15.89533 -3.840469 0.0 1e-06 -2e-06 -10.283373 -5.680288 -4.341837 11.028295 -11.302401 -2.372631 -1.38427 -14.238577 -6.320119 -0.62544 -26.924185 -3.827603 -4.038108 -49.865559 -3.792604 -13.708524 -7.363477 -3.720939 18.141146 -14.052735 -3.242671 2e-06 -18.787266 -1e-06 -0.429712 -8.456041 2.555503 -0.0 0.0 -0.0 -15.923536 -20.094482 -5.473582 30.41921 -7.190821 1.735927 3e-06 -8.162925 0.0 -1.861902 -22.861467 -6.167942 -0.0 -5e-06 -3e-06 -175.931122 -5.734519 0.817308 8.493521 -0.032841 0.103466 -78.452301 0.830292 -6.472083 -10.054145 1.633984 2.025271 -1.0 0.0 -0.0 3.70418 -3.569834 -1.882995 9.902864 0.005849 0.113949 -78.927971 -3.907144 -8.239757 -9.841814 0.805878 1.594302 -1.000002 0.0 -0.0 
0.0 0.0 0.0 0.0 -0.0 0.0 3.641596 99.923477 4.612732 89.712784 3.517234 90.105118 -2.540072 0.933079 -0.391351 -12.128341 -0.436327 -0.438397 21.234404 -0.081567 -2.839973 22.611317 -0.679012 2.528523 -2.59286 -0.543111 -1.540167 -33.456215 -0.519492 -2.685998 6e-06 -0.0 -0.0 -0.017553 0.025837 0.070848 0.055393 0.025618 0.083911 0.040445 0.023893 0.06018 -112.586754 -73.468216 134.098831 55.478828 -54.939655 -3.2209 20.089239 -0.066982 -0.000823 -0.850752 -0.586385 11.28613 17.636625 -26.322737 52.411213 -19.466665 -14.395597 29.410398 0.0 -8.774822 -2e-06 16.13657 -18.023624 6.140106 -0.609776 -1.795655 -3.889328 -4.807088 -11.046813 -2.937851 4e-06 -20.976019 -3e-06 -5.019969 -25.03356 -4.031879 7e-06 -1e-06 0.0 -10.634535 -5.686972 -3.565589 10.573276 -17.922953 -3.113902 2e-06 -13.82121 0.0 -0.501778 -31.181505 -4.027015 -11.483806 -59.973877 7.335739 -13.982714 -7.150199 -2.87504 13.772731 -8.401493 -3.218243 0.347731 -34.211555 0.771655 -0.963031 -17.733372 2.621021 0.0 -1e-06 -1e-06 -17.346424 -20.095224 -4.201779 21.757561 -1.638375 3.866427 1e-06 -6.338824 -0.0 -1.697588 -22.591753 -6.194006 0.0 -2e-06 -0.0 54.878967 -74.105179 146.79892 47.614124 -59.908356 -14.347832 22.673782 -0.068528 0.171773 -0.368559 7.375091 4.736767 22.182121 -20.375898 49.933323 -16.701817 -16.743534 28.476538 -3e-06 -12.690603 -0.0 16.129946 -17.682812 2.731613 -0.10592 -1.513857 -4.275882 -5.039042 -5.612872 -2.953556 4e-06 -11.020526 -2e-06 -6.1113 -15.895336 -3.840471 0.0 -0.0 -1e-06 -10.283371 -5.680288 -4.341839 11.028295 -11.302406 -2.372632 -1.384269 -14.238583 -6.320122 -0.625439 -26.924194 -3.827602 -4.06317 -49.842731 -3.768206 -13.708527 -7.363479 -3.72094 18.141155 -14.052741 -3.242674 4e-06 -18.787271 -1e-06 -0.429712 -8.456045 2.555505 -0.0 0.0 1e-06 -15.923538 -20.094484 -5.473587 30.419218 -7.190827 1.735925 3e-06 -8.162928 0.0 -1.861902 -22.861473 -6.16794 -1e-06 -5e-06 -3e-06 -175.92215 -5.759745 0.82868 8.47398 -0.036833 0.114029 -78.442787 0.760422 -6.511394 -10.037572 1.626248 2.023677 -1.0 0.0 0.0 3.7654 -3.534532 -1.825955 9.726603 0.005967 0.107338 -78.840866 -3.968679 -8.267599 -9.82128 0.799712 1.592869 -1.000002 -0.0 0.0 
